<?xml version="1.0" encoding="UTF-8"?>
<svg xmlns="http://www.w3.org/2000/svg" width="100" height="100" viewBox="0 0 100 100">
  <!-- Top flower petal -->
  <path d="M50,15 C48,20 47,25 44,28 C39,33 32,37 25,37 C18,37 13,35 9,30 C5,25 4,19 7,13 C9,19 12,22 17,24 C22,26 26,26 32,23 C38,20 43,15 47,7 C48,10 49,13 48,17 C47,21 45,25 44,29 C43,33 44,37 46,40 C48,43 52,44 56,44 C60,44 65,43 69,41 C73,39 78,35 80,28 C82,21 81,15 79,9 C83,14 85,19 85,25 C85,31 82,37 77,42 C72,47 67,49 62,49 C57,49 53,48 50,45 C47,42 46,38 46,33 C46,27 48,22 53,17 C58,12 62,10 67,9 C66,14 63,19 60,22 C57,25 53,27 49,27 C45,27 42,25 41,21 C40,17 41,14 43,11 L50,15 Z" fill="black" stroke="none" />
  
  <!-- Bottom flower petal -->
  <path d="M45,52 C41,53 36,56 33,59 C30,62 28,65 27,70 C26,75 28,81 33,85 C38,89 45,90 52,89 C47,86 44,82 43,78 C42,74 43,69 45,66 C47,63 51,60 56,56 C53,56 50,58 46,59 C42,60 39,60 36,59 C33,58 30,56 29,54 C28,52 28,49 30,46 C32,43 36,40 39,39 C42,38 46,38 51,39 C46,34 40,34 35,36 C30,38 26,43 23,48 C20,53 21,58 24,62 C27,66 32,68 37,68 C42,68 48,66 53,63 C58,60 62,56 64,50 C65,46 64,42 62,38 C60,41 59,44 56,46 C53,48 49,49 45,49 C41,49 38,48 37,45 C36,42 37,40 40,38 L45,52 Z" fill="black" stroke="none" />
  
  <!-- Pollen dots -->
  <circle cx="89" cy="49" r="1.5" fill="black" />
  <circle cx="85" cy="54" r="1.5" fill="black" />
  <circle cx="82" cy="58" r="1.5" fill="black" />
  <circle cx="88" cy="43" r="1.5" fill="black" />
  <circle cx="91" cy="39" r="1.5" fill="black" />
</svg>
